<?xml version="1.0" encoding="utf-8"?>
<!-- Generator: Adobe Illustrator 26.1.0, SVG Export Plug-In . SVG Version: 6.00 Build 0)  -->
<svg version="1.1" id="Layer_1" xmlns="http://www.w3.org/2000/svg" xmlns:xlink="http://www.w3.org/1999/xlink" x="0px" y="0px"
	 width="112.2px" height="26.3px" viewBox="0 0 112.2 26.3" style="enable-background:new 0 0 112.2 26.3;" xml:space="preserve">
<style type="text/css">
	.st0{fill:#FFFFFF;}
</style>
<g>
	<g>
		<path class="st0" d="M0.1,26.3C0.1,26.3,0.1,26.3,0.1,26.3C0,26.3,0,26.2,0,26.2v-3.1C0,23,0,23,0,23c0,0,0.1,0,0.1,0l1.1,0
			c0.3,0,0.5,0.1,0.7,0.3c0.2,0.2,0.3,0.4,0.3,0.6c0,0.2,0,0.3-0.1,0.4c-0.1,0.1-0.2,0.2-0.3,0.3c0.2,0.1,0.3,0.2,0.4,0.3
			c0.1,0.1,0.1,0.3,0.1,0.5c0,0.3-0.1,0.5-0.3,0.7c-0.2,0.2-0.4,0.3-0.7,0.3H0.1z M0.3,24.5l1,0c0.2,0,0.4-0.1,0.5-0.2
			C1.9,24.2,2,24,2,23.8c0-0.2-0.1-0.3-0.2-0.4c-0.1-0.1-0.3-0.2-0.5-0.2l-1,0V24.5z M0.3,26h1c0.2,0,0.4-0.1,0.5-0.2
			C1.9,25.7,2,25.6,2,25.4S1.9,25.1,1.8,25c-0.1-0.1-0.3-0.2-0.5-0.2c0,0,0,0,0,0c0,0,0,0,0,0h-1V26z"/>
		<path class="st0" d="M7.4,22.9C7.4,22.9,7.5,22.9,7.4,22.9C7.5,23,7.5,23,7.5,23.1v2.1c0,0.3-0.1,0.6-0.3,0.8
			c-0.2,0.2-0.5,0.3-0.8,0.3c-0.3,0-0.6-0.1-0.8-0.3c-0.2-0.2-0.3-0.5-0.3-0.8v-2.1c0,0,0-0.1,0-0.1c0,0,0.1,0,0.1,0
			c0,0,0.1,0,0.1,0c0,0,0,0.1,0,0.1v2.1c0,0.2,0.1,0.5,0.3,0.6c0.2,0.2,0.4,0.3,0.6,0.3c0.2,0,0.5-0.1,0.6-0.3
			c0.2-0.2,0.3-0.4,0.3-0.6v-2.1C7.3,23,7.3,23,7.4,22.9C7.3,22.9,7.4,22.9,7.4,22.9z"/>
		<path class="st0" d="M10.9,26.2C10.9,26.2,10.9,26.3,10.9,26.2c-0.1,0.1-0.1,0.1-0.1,0.1c0,0-0.1,0-0.1,0c0,0,0-0.1,0-0.1v-3.1
			c0,0,0-0.1,0-0.1c0,0,0.1,0,0.1,0c0,0,0.1,0,0.1,0c0,0,0,0.1,0,0.1V26.2z"/>
		<path class="st0" d="M14.1,22.9C14.1,22.9,14.2,22.9,14.1,22.9c0.1,0.1,0.1,0.1,0.1,0.1v3h1.5c0,0,0.1,0,0.1,0c0,0,0,0.1,0,0.1
			c0,0,0,0.1,0,0.1c0,0-0.1,0-0.1,0h-1.7c0,0-0.1,0-0.1,0c0,0,0-0.1,0-0.1v-3.1c0,0,0-0.1,0-0.1C14,22.9,14.1,22.9,14.1,22.9z"/>
		<path class="st0" d="M18.9,26.3C18.8,26.3,18.8,26.3,18.9,26.3c-0.1-0.1-0.1-0.1-0.1-0.1v-3.1c0,0,0-0.1,0-0.1c0,0,0.1,0,0.1,0
			h0.8c0.5,0,0.9,0.2,1.2,0.5c0.3,0.3,0.5,0.7,0.5,1.2s-0.2,0.9-0.5,1.2c-0.3,0.3-0.7,0.5-1.2,0.5L18.9,26.3L18.9,26.3z M19,26
			l0.6,0c0.4,0,0.7-0.1,1-0.4c0.3-0.3,0.4-0.6,0.4-1s-0.1-0.7-0.4-1c-0.3-0.3-0.6-0.4-1-0.4H19V26z"/>
		<path class="st0" d="M24.6,26.2C24.6,26.2,24.6,26.3,24.6,26.2c-0.1,0.1-0.1,0.1-0.1,0.1c0,0-0.1,0-0.1,0c0,0,0-0.1,0-0.1v-3.1
			c0,0,0-0.1,0-0.1c0,0,0.1,0,0.1,0c0,0,0.1,0,0.1,0c0,0,0,0.1,0,0.1V26.2z"/>
		<path class="st0" d="M30.2,26.3L30.2,26.3L30.2,26.3L28,23.5v2.7c0,0,0,0.1,0,0.1c0,0-0.1,0-0.1,0c0,0-0.1,0-0.1,0
			c0,0,0-0.1,0-0.1v-3.1c0-0.1,0-0.1,0.1-0.1c0.1,0,0.1,0,0.2,0l2.2,2.8v-2.7c0,0,0-0.1,0-0.1c0,0,0.1,0,0.1,0c0,0,0.1,0,0.1,0
			c0,0,0,0.1,0,0.1v3.1c0,0,0,0,0,0c0,0,0,0,0,0c0,0,0,0,0,0c0,0,0,0,0,0c0,0,0,0,0,0c0,0,0,0,0,0c0,0,0,0,0,0c0,0,0,0,0,0
			c0,0,0,0,0,0c0,0,0,0,0,0c0,0,0,0,0,0c0,0,0,0,0,0c0,0,0,0,0,0c0,0,0,0,0,0c0,0,0,0,0,0c0,0,0,0,0,0c0,0,0,0,0,0
			C30.3,26.3,30.3,26.3,30.2,26.3L30.2,26.3C30.2,26.3,30.2,26.3,30.2,26.3C30.2,26.3,30.2,26.3,30.2,26.3
			C30.2,26.3,30.2,26.3,30.2,26.3C30.2,26.3,30.2,26.3,30.2,26.3C30.2,26.3,30.2,26.3,30.2,26.3z"/>
		<path class="st0" d="M33.8,25.8c-0.3-0.3-0.5-0.7-0.5-1.2c0-0.5,0.2-0.9,0.5-1.2c0.3-0.3,0.7-0.5,1.2-0.5c0.4,0,0.7,0.1,1,0.4
			c0,0,0,0.1,0.1,0.1c0,0,0,0.1,0,0.1c0,0-0.1,0-0.1,0.1c0,0-0.1,0-0.1,0c-0.3-0.2-0.5-0.3-0.9-0.3c-0.4,0-0.7,0.1-1,0.4
			c-0.3,0.3-0.4,0.6-0.4,1c0,0.4,0.1,0.7,0.4,1c0.3,0.3,0.6,0.4,1,0.4c0.4,0,0.7-0.1,1-0.4c0,0,0.1,0,0.1,0c0,0,0.1,0,0.1,0
			c0,0,0,0.1,0,0.1c0,0,0,0.1,0,0.1c-0.3,0.3-0.7,0.4-1.1,0.4C34.5,26.3,34.1,26.2,33.8,25.8z M36,26.3C35.9,26.3,35.9,26.2,36,26.3
			l0-1.6h-1.2c0,0-0.1,0-0.1,0c0,0,0-0.1,0-0.1c0,0,0-0.1,0-0.1c0,0,0.1,0,0.1,0h1.3c0,0,0.1,0,0.1,0c0,0,0,0.1,0,0.1v1.6
			c0,0,0,0.1,0,0.1c0,0-0.1,0-0.1,0C36,26.3,36,26.3,36,26.3z"/>
		<path class="st0" d="M44.9,22.9C44.9,22.9,45,22.9,44.9,22.9C45,23,45,23,45,23.1v2.1c0,0.3-0.1,0.6-0.3,0.8
			c-0.2,0.2-0.5,0.3-0.8,0.3c-0.3,0-0.6-0.1-0.8-0.3c-0.2-0.2-0.3-0.5-0.3-0.8v-2.1c0,0,0-0.1,0-0.1c0,0,0.1,0,0.1,0
			c0,0,0.1,0,0.1,0c0,0,0,0.1,0,0.1v2.1c0,0.2,0.1,0.5,0.3,0.6c0.2,0.2,0.4,0.3,0.6,0.3c0.2,0,0.5-0.1,0.6-0.3
			c0.2-0.2,0.3-0.4,0.3-0.6v-2.1C44.7,23,44.8,23,44.9,22.9C44.8,22.9,44.8,22.9,44.9,22.9z"/>
		<path class="st0" d="M50.5,26.3L50.5,26.3L50.5,26.3l-2.2-2.8v2.7c0,0,0,0.1,0,0.1c0,0-0.1,0-0.1,0c0,0-0.1,0-0.1,0
			c0,0,0-0.1,0-0.1v-3.1c0-0.1,0-0.1,0.1-0.1c0.1,0,0.1,0,0.2,0l2.2,2.8v-2.7c0,0,0-0.1,0-0.1c0,0,0.1,0,0.1,0c0,0,0.1,0,0.1,0
			c0,0,0,0.1,0,0.1v3.1c0,0,0,0,0,0c0,0,0,0,0,0c0,0,0,0,0,0c0,0,0,0,0,0c0,0,0,0,0,0c0,0,0,0,0,0c0,0,0,0,0,0c0,0,0,0,0,0
			c0,0,0,0,0,0c0,0,0,0,0,0c0,0,0,0,0,0c0,0,0,0,0,0c0,0,0,0,0,0c0,0,0,0,0,0c0,0,0,0,0,0c0,0,0,0,0,0c0,0,0,0,0,0
			C50.6,26.3,50.6,26.3,50.5,26.3L50.5,26.3C50.6,26.3,50.6,26.3,50.5,26.3C50.6,26.3,50.6,26.3,50.5,26.3
			C50.6,26.3,50.6,26.3,50.5,26.3C50.5,26.3,50.5,26.3,50.5,26.3C50.5,26.3,50.5,26.3,50.5,26.3z"/>
		<path class="st0" d="M54.1,26.2C54.1,26.2,54.1,26.3,54.1,26.2c-0.1,0.1-0.1,0.1-0.1,0.1c0,0-0.1,0-0.1,0c0,0,0-0.1,0-0.1v-3.1
			c0,0,0-0.1,0-0.1c0,0,0.1,0,0.1,0c0,0,0.1,0,0.1,0c0,0,0,0.1,0,0.1V26.2z"/>
		<path class="st0" d="M60.4,26.1C60.4,26.1,60.5,26.1,60.4,26.1c0,0.1,0,0.2,0,0.2c0,0-0.1,0-0.1,0c0,0-0.1,0-0.1,0l-0.4-0.4
			c-0.3,0.3-0.7,0.4-1.1,0.4c-0.5,0-0.9-0.2-1.2-0.5c-0.3-0.3-0.5-0.7-0.5-1.2c0-0.5,0.2-0.9,0.5-1.2c0.3-0.3,0.7-0.5,1.2-0.5
			c0.5,0,0.9,0.2,1.2,0.5c0.3,0.3,0.5,0.7,0.5,1.2c0,0.4-0.1,0.8-0.4,1.1L60.4,26.1z M58.7,26c0.4,0,0.7-0.1,0.9-0.3l-0.4-0.4
			c0,0,0-0.1,0-0.1c0,0,0-0.1,0-0.1c0,0,0.1,0,0.1,0c0,0,0.1,0,0.1,0l0.3,0.3c0.2-0.3,0.3-0.5,0.3-0.9c0-0.4-0.1-0.7-0.4-1
			c-0.3-0.3-0.6-0.4-1-0.4c-0.4,0-0.7,0.1-1,0.4c-0.3,0.3-0.4,0.6-0.4,1c0,0.4,0.1,0.7,0.4,1C58,25.9,58.3,26,58.7,26z"/>
		<path class="st0" d="M65.5,22.9C65.6,22.9,65.6,22.9,65.5,22.9c0.1,0.1,0.1,0.1,0.1,0.1v2.1c0,0.3-0.1,0.6-0.3,0.8
			c-0.2,0.2-0.5,0.3-0.8,0.3c-0.3,0-0.6-0.1-0.8-0.3c-0.2-0.2-0.3-0.5-0.3-0.8v-2.1c0,0,0-0.1,0-0.1c0,0,0.1,0,0.1,0
			c0,0,0.1,0,0.1,0c0,0,0,0.1,0,0.1v2.1c0,0.2,0.1,0.5,0.3,0.6c0.2,0.2,0.4,0.3,0.6,0.3c0.2,0,0.5-0.1,0.6-0.3
			c0.2-0.2,0.3-0.4,0.3-0.6v-2.1C65.4,23,65.4,23,65.5,22.9C65.5,22.9,65.5,22.9,65.5,22.9z"/>
		<path class="st0" d="M68.9,26.3C68.8,26.3,68.8,26.3,68.9,26.3c-0.1-0.1-0.1-0.1-0.1-0.1v-3.1c0,0,0-0.1,0-0.1c0,0,0.1,0,0.1,0
			l1.9,0c0,0,0.1,0,0.1,0c0,0,0,0.1,0,0.1c0,0,0,0.1,0,0.1c0,0-0.1,0-0.1,0l-1.7,0v1.3h1.3c0,0,0.1,0,0.1,0c0,0,0,0.1,0,0.1
			c0,0,0,0.1,0,0.1c0,0-0.1,0-0.1,0H69V26h1.7c0,0,0.1,0,0.1,0c0,0,0,0.1,0,0.1c0,0,0,0.1,0,0.1c0,0-0.1,0-0.1,0H68.9z"/>
		<path class="st0" d="M77.4,26.3C77.4,26.3,77.3,26.3,77.4,26.3c-0.1-0.1-0.1-0.1-0.1-0.1v-3.1c0,0,0-0.1,0-0.1c0,0,0.1,0,0.1,0
			l1.1,0c0.3,0,0.5,0.1,0.7,0.3c0.2,0.2,0.3,0.4,0.3,0.6c0,0.2,0,0.3-0.1,0.4c-0.1,0.1-0.2,0.2-0.3,0.3c0.2,0.1,0.3,0.2,0.4,0.3
			c0.1,0.1,0.1,0.3,0.1,0.5c0,0.3-0.1,0.5-0.3,0.7c-0.2,0.2-0.4,0.3-0.7,0.3H77.4z M77.5,24.5l1,0c0.2,0,0.4-0.1,0.5-0.2
			c0.1-0.1,0.2-0.3,0.2-0.5c0-0.2-0.1-0.3-0.2-0.4c-0.1-0.1-0.3-0.2-0.5-0.2l-1,0V24.5z M77.5,26h1c0.2,0,0.4-0.1,0.5-0.2
			c0.1-0.1,0.2-0.3,0.2-0.5s-0.1-0.3-0.2-0.4c-0.1-0.1-0.3-0.2-0.5-0.2c0,0,0,0,0,0c0,0,0,0,0,0h-1V26z"/>
		<path class="st0" d="M83.7,22.9c0.3,0,0.5,0.1,0.7,0.3c0.2,0.2,0.3,0.4,0.3,0.6c0,0.2-0.1,0.4-0.2,0.6c-0.2,0.2-0.4,0.3-0.6,0.3
			l0.7,1.4c0,0,0,0.1,0,0.1c0,0,0,0.1-0.1,0.1c0,0,0,0-0.1,0c-0.1,0-0.1,0-0.1-0.1l-0.7-1.5h-0.8v1.4c0,0,0,0.1,0,0.1
			c0,0-0.1,0-0.1,0c0,0-0.1,0-0.1,0c0,0,0-0.1,0-0.1v-3.1c0,0,0-0.1,0-0.1c0,0,0.1,0,0.1,0H83.7z M84.4,23.8c0-0.2-0.1-0.3-0.2-0.4
			c-0.1-0.1-0.3-0.2-0.5-0.2h-0.9v1.3h0.9c0.2,0,0.4-0.1,0.5-0.2C84.4,24.2,84.4,24,84.4,23.8z"/>
		<path class="st0" d="M87.5,26.3C87.5,26.3,87.5,26.3,87.5,26.3c-0.1-0.1-0.1-0.1-0.1-0.2l0.3-0.8v0l1-2.3c0,0,0,0,0,0l0,0
			c0,0,0,0,0,0c0,0,0,0,0,0c0,0,0,0,0,0c0,0,0,0,0,0h0c0,0,0,0,0,0c0,0,0,0,0,0c0,0,0,0,0,0c0,0,0,0,0.1,0l0,0c0,0,0,0,0,0
			c0,0,0,0,0,0c0,0,0,0,0,0c0,0,0,0,0,0l1,2.3v0l0.3,0.8c0,0,0,0.1,0,0.1c0,0,0,0.1-0.1,0.1c0,0,0,0-0.1,0c-0.1,0-0.1,0-0.1-0.1
			l-0.3-0.7H88l-0.3,0.7C87.7,26.3,87.6,26.3,87.5,26.3C87.6,26.3,87.5,26.3,87.5,26.3z M89.6,25.2l-0.7-1.8l-0.7,1.8H89.6z"/>
		<path class="st0" d="M95.6,26.3L95.6,26.3L95.6,26.3l-2.2-2.8v2.7c0,0,0,0.1,0,0.1c0,0-0.1,0-0.1,0c0,0-0.1,0-0.1,0
			c0,0,0-0.1,0-0.1v-3.1c0-0.1,0-0.1,0.1-0.1c0.1,0,0.1,0,0.2,0l2.2,2.8v-2.7c0,0,0-0.1,0-0.1c0,0,0.1,0,0.1,0c0,0,0.1,0,0.1,0
			c0,0,0,0.1,0,0.1v3.1c0,0,0,0,0,0c0,0,0,0,0,0c0,0,0,0,0,0c0,0,0,0,0,0c0,0,0,0,0,0c0,0,0,0,0,0c0,0,0,0,0,0c0,0,0,0,0,0
			c0,0,0,0,0,0c0,0,0,0,0,0c0,0,0,0,0,0c0,0,0,0,0,0c0,0,0,0,0,0c0,0,0,0,0,0c0,0,0,0,0,0c0,0,0,0,0,0c0,0,0,0,0,0
			C95.7,26.3,95.6,26.3,95.6,26.3L95.6,26.3C95.6,26.3,95.6,26.3,95.6,26.3C95.6,26.3,95.6,26.3,95.6,26.3
			C95.6,26.3,95.6,26.3,95.6,26.3C95.6,26.3,95.6,26.3,95.6,26.3C95.6,26.3,95.6,26.3,95.6,26.3z"/>
		<path class="st0" d="M99,26.3C99,26.3,99,26.3,99,26.3c-0.1-0.1-0.1-0.1-0.1-0.1v-3.1c0,0,0-0.1,0-0.1c0,0,0.1,0,0.1,0h0.8
			c0.5,0,0.9,0.2,1.2,0.5c0.3,0.3,0.5,0.7,0.5,1.2s-0.2,0.9-0.5,1.2c-0.3,0.3-0.7,0.5-1.2,0.5L99,26.3L99,26.3z M99.2,26l0.6,0
			c0.4,0,0.7-0.1,1-0.4c0.3-0.3,0.4-0.6,0.4-1s-0.1-0.7-0.4-1c-0.3-0.3-0.6-0.4-1-0.4h-0.6V26z"/>
		<path class="st0" d="M105.5,24.8c-0.4,0-0.7-0.1-0.9-0.3c-0.2-0.2-0.2-0.4-0.2-0.6c0-0.3,0.1-0.5,0.3-0.7c0.2-0.2,0.4-0.3,0.7-0.3
			c0.2,0,0.5,0.1,0.7,0.2c0.2,0.1,0.4,0.3,0.4,0.5c0,0,0,0.1,0,0.1c0,0,0,0.1-0.1,0.1c0,0-0.1,0-0.1,0c0,0-0.1,0-0.1-0.1
			c0-0.2-0.2-0.3-0.3-0.4c-0.1-0.1-0.3-0.1-0.5-0.1c-0.2,0-0.4,0.1-0.5,0.2c-0.1,0.1-0.2,0.3-0.2,0.5c0,0.1,0,0.3,0.1,0.4
			c0.1,0.1,0.4,0.2,0.7,0.2c0,0,0.1,0,0.1,0c0,0,0,0.1,0,0.1c0,0,0,0.1,0,0.1C105.6,24.8,105.5,24.8,105.5,24.8L105.5,24.8z
			 M104.9,26.2c-0.2-0.1-0.4-0.3-0.4-0.5c0,0,0-0.1,0-0.1c0,0,0-0.1,0.1-0.1c0,0,0.1,0,0.1,0c0,0,0.1,0,0.1,0.1
			c0,0.2,0.2,0.3,0.3,0.4c0.1,0.1,0.3,0.1,0.5,0.1c0.2,0,0.4-0.1,0.5-0.2c0.1-0.1,0.2-0.3,0.2-0.5c0-0.1,0-0.3-0.1-0.4
			c-0.1-0.1-0.4-0.2-0.7-0.2c0,0-0.1,0-0.1,0c0,0,0-0.1,0-0.1c0,0,0-0.1,0-0.1c0,0,0.1,0,0.1,0c0.4,0,0.7,0.1,0.9,0.3
			c0.2,0.2,0.2,0.4,0.2,0.6c0,0.3-0.1,0.5-0.3,0.7c-0.2,0.2-0.4,0.3-0.7,0.3C105.3,26.3,105,26.3,104.9,26.2z"/>
	</g>
	<path class="st0" d="M103.4,19.7v-7.1L97,0h2.9l4.7,9.9l4.8-9.9h2.9L106,12.6v7.1H103.4z M0.2,19.7l2-9.8L0.2,0h9.4
		c3.4,0,6.1,2.7,6.1,6.1v7.5c0,3.4-2.7,6.1-6.1,6.1H0.2z M3.3,17h6.3c1.9,0,3.4-1.5,3.4-3.4V6.1c0-1.9-1.5-3.4-3.4-3.4H3.3l1.5,7.2
		L3.3,17z M91.2,19.7V6.5c0-2.1-1.7-3.9-3.9-3.9h-3.7v17H81V0h6.7c3.4,0,6.1,2.7,6.1,6.1v13.6H91.2z M74.9,19.7V0h2.6v19.7H74.9z
		 M68.8,19.7v-7h-7.5v7h-2.6V0h6.7c3.4,0,6.1,2.7,6.1,6.1v13.6H68.8z M61.3,10h7.5V6.5c0-2.1-1.7-3.9-3.9-3.9h-3.7V10z M39.1,19.7
		v-2.8L51.4,2.7H39.1V0h15.5v2.8L42.5,17h12.2v2.6H39.1z M19.7,19.7v-8.8h15.5v2.6H22.3V17h12.9v2.6H19.7z M19.7,8.8V0h15.5v2.6
		H22.3v3.5h12.9v2.6H19.7z"/>
</g>
</svg>
